<?xml version="1.0" standalone="no"?>
<!DOCTYPE svg PUBLIC "-//W3C//DTD SVG 20010904//EN"
 "http://www.w3.org/TR/2001/REC-SVG-20010904/DTD/svg10.dtd">
<svg version="1.0" xmlns="http://www.w3.org/2000/svg"
 width="1213.000000pt" height="1213.000000pt" viewBox="0 0 1213.000000 1213.000000"
 preserveAspectRatio="xMidYMid meet">
<metadata>
Created by potrace 1.14, written by Peter Selinger 2001-2017
</metadata>
<g transform="translate(0.000000,1213.000000) scale(0.100000,-0.100000)"
fill="#000000" stroke="none">
<path d="M7625 12124 c-471 -49 -940 -210 -1375 -472 -191 -115 -320 -207
-585 -416 -964 -762 -2197 -1178 -3306 -1117 -179 10 -212 10 -243 -3 -51 -21
-78 -69 -73 -131 2 -36 518 -1453 1815 -4985 1698 -4626 1814 -4937 1847
-4967 29 -28 42 -33 82 -33 59 0 104 26 125 71 45 96 4162 11040 4166 11072 9
78 -6 96 -193 242 -503 391 -1026 627 -1600 721 -96 15 -560 28 -660 18z m465
-274 c537 -48 1058 -259 1556 -630 119 -89 134 -103 128 -123 -19 -61 -596
-1583 -602 -1589 -6 -6 -5837 -2142 -5870 -2150 -9 -2 -152 374 -461 1217
-247 671 -451 1230 -455 1243 l-7 22 193 0 c744 0 1500 180 2223 529 409 198
741 410 1136 726 163 130 415 300 587 394 503 277 1064 406 1572 361z m625
-3567 c-4 -10 -45 -120 -92 -245 -47 -125 -90 -233 -97 -241 -10 -13 -4713
-1738 -4746 -1741 -10 -1 -35 55 -81 179 -38 99 -68 187 -68 195 0 11 686 266
2532 942 1392 509 2538 927 2546 927 9 1 11 -5 6 -16z m-737 -1955 c-54 -144
-100 -263 -101 -264 -15 -13 -3622 -1323 -3628 -1317 -4 4 -39 94 -77 198 -68
185 -69 190 -48 198 169 63 3943 1445 3947 1446 4 1 -38 -117 -93 -261z m-550
-1459 c-20 -60 -1634 -4336 -1636 -4334 -8 7 -1211 3299 -1207 3303 5 6 2826
1040 2838 1041 5 1 7 -4 5 -10z"/>
</g>
</svg>
