<?xml version="1.0" standalone="no"?>
<!DOCTYPE svg PUBLIC "-//W3C//DTD SVG 20010904//EN"
 "http://www.w3.org/TR/2001/REC-SVG-20010904/DTD/svg10.dtd">
<svg version="1.0" xmlns="http://www.w3.org/2000/svg"
 width="3000.000000pt" height="3000.000000pt" viewBox="0 0 3000.000000 3000.000000"
 preserveAspectRatio="xMidYMid meet">
<metadata>
Created by potrace 1.14, written by Peter Selinger 2001-2017
</metadata>
<g transform="translate(0.000000,3000.000000) scale(0.100000,-0.100000)"
fill="#000000" stroke="none">
<path d="M14624 16458 l1 -6133 1458 -1 1457 -1 1 1926 c0 1059 2 1935 4 1946
1 11 6 45 9 75 14 131 57 300 107 429 32 81 93 210 120 251 9 14 36 56 59 94
188 296 502 552 857 698 51 21 236 77 278 83 16 3 41 8 55 10 59 12 76 15 144
22 92 10 2179 10 2271 0 376 -41 723 -193 1012 -442 297 -256 525 -653 589
-1025 3 -14 6 -30 9 -37 2 -7 8 -45 12 -85 10 -90 11 -2238 1 -2328 -10 -90
-32 -199 -62 -301 -210 -722 -851 -1245 -1601 -1306 -44 -4 -810 -7 -1702 -7
-1085 -1 -1623 -4 -1624 -11 -1 -5 -2 -662 -3 -1458 l-1 -1448 1775 4 c976 2
1791 7 1810 10 19 2 64 8 100 11 63 6 106 12 180 22 108 15 126 18 170 28 14
3 41 8 60 10 19 3 67 12 105 22 39 9 81 18 95 21 37 6 333 90 404 114 517 174
1013 444 1446 788 152 122 250 210 429 391 265 268 509 587 702 915 83 142
230 438 289 580 51 126 64 160 115 312 27 79 90 293 99 333 3 14 17 75 30 135
34 151 34 150 61 335 48 332 50 373 49 1670 0 1254 -1 1299 -40 1590 -29 211
-87 488 -144 680 -18 58 -35 119 -40 135 -19 71 -138 379 -192 494 -82 177
-225 448 -254 482 -8 8 -14 19 -14 23 0 10 -187 291 -206 310 -8 8 -14 19 -14
24 0 6 -3 12 -7 14 -5 2 -28 29 -52 61 -199 268 -545 621 -821 839 -273 214
-507 364 -820 521 -267 134 -453 208 -805 317 -114 35 -453 110 -565 125 -51
7 -94 13 -130 20 -14 2 -59 7 -100 11 -41 3 -82 7 -90 9 -67 13 -440 17 -1395
17 -970 0 -1273 -4 -1383 -17 -15 -2 -61 -6 -102 -10 -41 -4 -82 -9 -91 -10
-9 -2 -40 -6 -70 -10 -30 -3 -61 -8 -69 -10 -8 -2 -31 -7 -50 -10 -19 -3 -46
-8 -60 -10 -14 -3 -36 -7 -50 -10 -14 -3 -67 -14 -118 -26 -52 -11 -101 -22
-110 -24 -9 -2 -17 -4 -17 -5 0 -1 -7 -3 -15 -5 -103 -20 -386 -111 -565 -182
-159 -63 -462 -208 -578 -277 -43 -25 -80 -46 -83 -46 -7 0 -230 -145 -314
-204 -157 -111 -370 -282 -476 -382 -22 -22 -47 -45 -55 -51 -14 -11 -16 31
-16 391 0 276 4 408 11 417 19 26 232 174 466 325 201 129 640 344 903 440
l77 29 0 1747 0 1748 -1459 0 -1458 0 1 -6132z"/>
<path d="M4003 16424 l0 -6101 1459 0 1458 0 0 6101 0 6101 -1458 0 -1459 0 0
-6101z"/>
<path d="M7545 22520 c-1 -3 -2 -2748 -1 -6100 l1 -6095 1458 -1 1457 -1 0
6101 0 6101 -1456 0 c-801 0 -1457 -2 -1459 -5z"/>
<path d="M11085 22520 c-1 -3 -2 -2748 -2 -6101 l0 -6096 1459 0 1458 0 0
6101 0 6101 -1456 0 c-801 0 -1457 -2 -1459 -5z"/>
</g>
</svg>
